name C:\Users\u0150099\Documents\master_thesis\3dpredictsim\Results\debug\Fal_s1_mtj_sc_cspx10_oy_TAR_MTPm_k1_d01_MTJm_nl_MG_exp_table_d01_PF_Gefen2002_ls146_FDB_ig21.mot
datacolumns 130
datarows 4
range 1.57569368 1.60720755
endheader
time	pelvis_tilt	pelvis_list	pelvis_rotation	pelvis_tx	pelvis_ty	pelvis_tz	hip_flexion_l	hip_adduction_l	hip_rotation_l	hip_flexion_r	hip_adduction_r	hip_rotation_r	knee_angle_l	knee_angle_r	ankle_angle_l	ankle_angle_r	subtalar_angle_l	subtalar_angle_r	mtj_angle_l	mtj_angle_r	mtp_angle_l	mtp_angle_r	lumbar_extension	lumbar_bending	lumbar_rotation	arm_flex_l	arm_add_l	arm_rot_l	arm_flex_r	arm_add_r	arm_rot_r	elbow_flex_l	elbow_flex_r	pro_sup_l	pro_sup_r	glut_med1_l/activation	glut_med2_l/activation	glut_med3_l/activation	glut_min1_l/activation	glut_min2_l/activation	glut_min3_l/activation	semimem_l/activation	semiten_l/activation	bifemlh_l/activation	bifemsh_l/activation	sar_l/activation	add_long_l/activation	add_brev_l/activation	add_mag1_l/activation	add_mag2_l/activation	add_mag3_l/activation	tfl_l/activation	pect_l/activation	grac_l/activation	glut_max1_l/activation	glut_max2_l/activation	glut_max3_l/activation	iliacus_l/activation	psoas_l/activation	quad_fem_l/activation	gem_l/activation	peri_l/activation	rect_fem_l/activation	vas_med_l/activation	vas_int_l/activation	vas_lat_l/activation	med_gas_l/activation	lat_gas_l/activation	soleus_l/activation	tib_post_l/activation	flex_dig_l/activation	flex_hal_l/activation	tib_ant_l/activation	per_brev_l/activation	per_long_l/activation	per_tert_l/activation	ext_dig_l/activation	ext_hal_l/activation	FDB_l/activation	ercspn_l/activation	intobl_l/activation	extobl_l/activation	glut_med1_r/activation	glut_med2_r/activation	glut_med3_r/activation	glut_min1_r/activation	glut_min2_r/activation	glut_min3_r/activation	semimem_r/activation	semiten_r/activation	bifemlh_r/activation	bifemsh_r/activation	sar_r/activation	add_long_r/activation	add_brev_r/activation	add_mag1_r/activation	add_mag2_r/activation	add_mag3_r/activation	tfl_r/activation	pect_r/activation	grac_r/activation	glut_max1_r/activation	glut_max2_r/activation	glut_max3_r/activation	iliacus_r/activation	psoas_r/activation	quad_fem_r/activation	gem_r/activation	peri_r/activation	rect_fem_r/activation	vas_med_r/activation	vas_int_r/activation	vas_lat_r/activation	med_gas_r/activation	lat_gas_r/activation	soleus_r/activation	tib_post_r/activation	flex_dig_r/activation	flex_hal_r/activation	tib_ant_r/activation	per_brev_r/activation	per_long_r/activation	per_tert_r/activation	ext_dig_r/activation	ext_hal_r/activation	FDB_r/activation	ercspn_r/activation	intobl_r/activation	extobl_r/activation	
          1.57569368	         -2.92386512	          1.78438199	         -2.70274377	          2.09567259	          0.91151103	          0.00359219	         29.72045283	          3.39347232	         -3.83987648	        -12.09536704	          2.60978886	          4.34025154	        -14.41447554	        -17.31563406	          8.85122546	          0.08658565	         -5.00404717	         -8.47160229	         -2.17737001	          2.14823708	         15.28842680	         26.87615038	         -3.47462862	         -0.89104188	          1.62867701	         -3.56463008	        -13.47845643	          7.25130159	          3.74769820	        -13.77706309	         19.36714133	         25.17144266	         31.87759119	         86.51662706	         86.51662706	          0.05000104	          0.05001694	          0.05000156	          0.05303604	          0.05003161	          0.05000596	          0.28430730	          0.08112761	          0.34298957	          0.08112736	          0.05000096	          0.08339319	          0.12646465	          0.11822830	          0.09356767	          0.16887786	          0.05000096	          0.05001893	          0.08112831	          0.05001683	          0.07370279	          0.16001919	          0.06038503	          0.06393286	          0.09223889	          0.05001468	          0.05000514	          0.05000013	          0.05000053	          0.05000045	          0.05000035	          0.06169155	          0.05392313	          0.05000014	          0.14367276	          0.06701933	          0.05000166	          0.45216411	          0.23933228	          0.36119048	          0.13654179	          0.45812523	          0.05018039	          0.05000011	          0.06222318	          0.10589448	          0.12727269	          0.22490213	          0.05064330	          0.05000096	          0.41129735	          0.13987590	          0.06067326	          0.05000114	          0.05000019	          0.05000021	          0.05000021	          0.05000821	          0.05000016	          0.05000027	          0.05000076	          0.05000229	          0.05000155	          0.43569921	          0.05000094	          0.05000039	          0.05001801	          0.05000692	          0.05000295	          0.46665442	          0.64526125	          0.05000042	          0.05000184	          0.05000076	          0.49928375	          0.20960934	          0.21056039	          0.17825487	          0.32722855	          0.49811743	          0.17090804	          0.68781504	          0.35721261	          0.57281403	          0.05000001	          0.18118669	          0.67481122	          0.05000018	          0.05000003	          0.05875470	          0.99999383	          0.05000007	          0.05000007	          0.05000007	
          1.58619830	         -2.92803910	          1.87711769	         -2.98590774	          2.11188223	          0.90999172	          0.00332921	         29.59647333	          3.61501229	         -3.74041541	        -12.82362883	          2.28828866	          4.09360119	        -14.35369771	        -17.58811202	          8.44773900	         -0.73785664	         -5.09482722	         -8.01667025	         -1.73173382	          1.32005935	         14.68293240	         29.16981320	         -3.32735139	         -1.07767052	          1.74764935	         -4.19643658	        -13.45457883	          6.57134152	          3.52096800	        -13.73658235	         19.37538699	         24.52324136	         32.98199455	         86.51662706	         86.51662706	          0.13531062	          0.05000033	          0.05875295	          0.05000027	          0.05000037	          0.05000156	          0.27084273	          0.06904036	          0.33312500	          0.06904031	          0.05875643	          0.09412477	          0.13959220	          0.11577323	          0.07963002	          0.19324835	          0.05000678	          0.05008706	          0.06904152	          0.05002009	          0.10065436	          0.18536680	          0.05672365	          0.07266928	          0.19889588	          0.05000225	          0.05000158	          0.05000005	          0.05000010	          0.05000009	          0.05000008	          0.05875377	          0.05875370	          0.05415184	          0.16081839	          0.05703463	          0.06904377	          0.44311160	          0.22905968	          0.38883867	          0.12908369	          0.46211078	          0.05000030	          0.07211966	          0.05882853	          0.09722556	          0.11500651	          0.26235203	          0.05000031	          0.05000012	          0.40904980	          0.11903574	          0.05163360	          0.05000134	          0.05000023	          0.05000021	          0.05000012	          0.05000253	          0.08338497	          0.05000094	          0.05000142	          0.05000434	          0.05000300	          0.41816127	          0.05000539	          0.05000050	          0.05000340	          0.05000206	          0.05000189	          0.39713944	          0.73818775	          0.05000018	          0.05000038	          0.05000011	          0.44876765	          0.22883023	          0.22818911	          0.19429241	          0.29928783	          0.46576605	          0.15768680	          0.64539643	          0.34651447	          0.56115712	          0.05000000	          0.15419134	          0.57426980	          0.05000010	          0.05000004	          0.05000079	          0.99999269	          0.05000003	          0.05000004	          0.05000009	
          1.59670293	         -2.92996856	          1.96080313	         -3.25784920	          2.12838089	          0.90845876	          0.00303993	         29.45800006	          3.83501599	         -3.60686485	        -13.45633957	          1.96261025	          3.84603877	        -14.93279295	        -18.02232780	          7.65213128	         -1.52323222	         -5.18448548	         -7.45041874	         -1.27792677	          0.19560889	         14.05319912	         31.78319945	         -3.16557543	         -1.25946995	          1.86078821	         -4.85735290	        -13.45006952	          6.09796731	          3.22298089	        -13.68639217	         19.28908961	         23.88658895	         34.09425892	         86.51662706	         86.51662706	          0.11515070	          0.05875347	          0.05000046	          0.05875399	          0.05875385	          0.05000344	          0.23048938	          0.05875393	          0.28493944	          0.05875389	          0.05000321	          0.09533220	          0.11879589	          0.17637301	          0.14950740	          0.21959414	          0.05000073	          0.05000784	          0.05875500	          0.05000117	          0.12815061	          0.24128578	          0.06799647	          0.08112501	          0.36557991	          0.13157969	          0.05000094	          0.08323527	          0.05000107	          0.05000220	          0.05000145	          0.05000000	          0.05000002	          0.05000000	          0.13685776	          0.05000061	          0.05875694	          0.49346393	          0.28688034	          0.40809394	          0.17408355	          0.52760964	          0.05980218	          0.06137453	          0.05006422	          0.08273976	          0.09787149	          0.22326585	          0.05000023	          0.05000007	          0.34810514	          0.10130056	          0.05000095	          0.05001430	          0.05000034	          0.05000025	          0.05001674	          0.05001045	          0.11972083	          0.10006634	          0.05000116	          0.05000365	          0.05000350	          0.41957180	          0.06462441	          0.05000089	          0.05000120	          0.05000078	          0.05000078	          0.33796891	          0.66302869	          0.05000007	          0.05000055	          0.05000215	          0.41186978	          0.21399943	          0.24038291	          0.21342136	          0.25486733	          0.40612148	          0.13785215	          0.57383366	          0.29488703	          0.47755235	          0.05000000	          0.13121808	          0.48870822	          0.05000013	          0.05000002	          0.06487888	          0.85100185	          0.05000000	          0.05428465	          0.05000003	
          1.60720755	         -2.93002713	          2.03907142	         -3.51882067	          2.14515755	          0.90691454	          0.00272754	         29.28360127	          4.03064327	         -3.43570402	        -14.00691460	          1.62691586	          3.58847645	        -16.14255548	        -18.58216008	          6.65816397	         -2.28061878	         -5.32809520	         -6.77867823	         -0.82010325	         -1.23657628	         13.42331865	         34.72294257	         -2.98890714	         -1.43671858	          1.96785415	         -5.54804719	        -13.46289142	          5.80578604	          2.85498760	        -13.64183533	         19.16645834	         23.27150868	         35.22940642	         86.51662706	         86.51662706	          0.21790108	          0.05000009	          0.05000025	          0.05000021	          0.05000018	          0.05000020	          0.19614835	          0.05000009	          0.24248583	          0.05000005	          0.06903919	          0.08112920	          0.15743873	          0.15009555	          0.12723240	          0.25264575	          0.05003401	          0.06904484	          0.05000106	          0.05000025	          0.21304430	          0.28883724	          0.06904032	          0.06904020	          0.39028709	          0.11197572	          0.14172759	          0.07083391	          0.11109811	          0.10549089	          0.09132462	          0.07007996	          0.07990805	          0.06904037	          0.11646706	          0.06904046	          0.05000273	          0.61119371	          0.43126799	          0.34729128	          0.14814659	          0.44900053	          0.05089214	          0.05223022	          0.05000004	          0.07041221	          0.08328943	          0.22723062	          0.05000156	          0.05001765	          0.29624044	          0.08620775	          0.05000150	          0.05000553	          0.05039148	          0.05002070	          0.05357277	          0.06890591	          0.22525002	          0.13282039	          0.05875376	          0.05567188	          0.05003163	          0.35705989	          0.06906092	          0.05875386	          0.05004056	          0.05002487	          0.05004740	          0.28761430	          0.62136313	          0.05875379	          0.05000382	          0.05000017	          0.35050453	          0.18211551	          0.20456804	          0.18162352	          0.21689415	          0.34561268	          0.11731329	          0.48833707	          0.25095131	          0.40640100	          0.05000071	          0.11166765	          0.41589464	          0.05000009	          0.05000036	          0.06904020	          0.72420943	          0.05022896	          0.05875385	          0.05745358	
